<svg data-v-0dd9719b="" version="1.0" xmlns="http://www.w3.org/2000/svg" xmlns:xlink="http://www.w3.org/1999/xlink" width="100%" height="100%" viewBox="0 0 340.000000 250.000000" preserveAspectRatio="xMidYMid meet" color-interpolation-filters="sRGB" style="margin: auto;"> <rect data-v-0dd9719b="" x="0" y="0" width="100%" height="100%" fill="#0a0619" fill-opacity="1" class="background"></rect> <rect data-v-0dd9719b="" x="0" y="0" width="100%" height="100%" fill-opacity="1"></rect> <g data-v-0dd9719b="" class="iconmbgsvg" transform="translate(57.214996337890625,72.5)"><g fill="#feecfb" hollow-target="textRect"><g mask="url(#a36eea6e-555e-4a6e-ae2e-9996500db141)"><g><rect fill="#feecfb" fill-opacity="0" stroke-width="2" x="0" y="0" width="105" height="105" class="image-rect"></rect> <svg x="0" y="0" width="105" height="105" filtersec="colorsb4351944892" class="image-svg-svg primary" style="overflow: visible;"><svg fill="#a585e2" xmlns="http://www.w3.org/2000/svg" xmlns:xlink="http://www.w3.org/1999/xlink" version="1.1" x="0px" y="0px" viewBox="10.399999618530273 10.399999618530273 75.19999694824219 75.19999694824219" enable-background="new 0 0 96 96" xml:space="preserve"><path d="M48,85.6c20.7,0,37.6-16.9,37.6-37.6S68.7,10.4,48,10.4S10.4,27.3,10.4,48S27.3,85.6,48,85.6z M48,12.4  c19.6,0,35.6,16,35.6,35.6S67.6,83.6,48,83.6S12.4,67.6,12.4,48S28.4,12.4,48,12.4z"></path><path d="M48,75.4c15.1,0,27.4-12.3,27.4-27.4S63.1,20.6,48,20.6S20.6,32.9,20.6,48S32.9,75.4,48,75.4z M48,22.6  C62,22.6,73.4,34,73.4,48S62,73.4,48,73.4S22.6,62,22.6,48S34,22.6,48,22.6z"></path></svg></svg> <!----></g><rect v-gra="id" width="117" height="117" transform="translate(-6, -6)" style="pointer-events:none;" fill="url(#vN0hIv8ngTDj3Oa8yLg-M)"></rect></g> <g transform="translate(45.43000030517578,35.71500015258789)"><g data-gra="path-name" fill-rule="" class="tp-name"><g transform="scale(1)"><g><path d="M22.44 0L3.59 0Q2.98 0 2.53-0.42L2.53-0.42Q2.11-0.87 2.11-1.48L2.11-1.48Q2.11-2.08 2.53-2.5L2.53-2.5Q2.98-2.95 3.59-2.95L3.59-2.95 22.44-2.95Q25.71-2.95 28.05-5.27L28.05-5.27Q30.38-7.62 30.38-10.89L30.38-10.89 30.38-22.68Q30.38-25.97 28.05-28.29L28.05-28.29Q25.71-30.64 22.44-30.64L22.44-30.64 3.59-30.64Q2.98-30.64 2.53-31.06L2.53-31.06Q2.11-31.48 2.11-32.09L2.11-32.09Q2.11-32.7 2.53-33.14L2.53-33.14Q2.98-33.57 3.59-33.57L3.59-33.57 22.44-33.57Q26.95-33.57 30.14-30.38L30.14-30.38Q33.33-27.18 33.33-22.68L33.33-22.68 33.33-10.89Q33.33-6.38 30.14-3.19L30.14-3.19Q26.95 0 22.44 0L22.44 0ZM39.02 0Q38.42 0 37.97-0.42L37.97-0.42Q37.55-0.87 37.55-1.48L37.55-1.48 37.55-32.09Q37.55-32.7 37.97-33.14L37.97-33.14Q38.42-33.57 39.02-33.57L39.02-33.57Q39.63-33.57 40.05-33.14L40.05-33.14Q40.5-32.7 40.5-32.09L40.5-32.09 40.5-1.48Q40.5-0.87 40.05-0.42L40.05-0.42Q39.63 0 39.02 0L39.02 0ZM66.81-18.25L47.67-18.25 47.67-30.64 66.81-30.64Q69.37-30.64 71.17-28.82L71.17-28.82Q72.98-27 72.98-24.44L72.98-24.44Q72.98-21.88 71.17-20.07L71.17-20.07Q69.37-18.25 66.81-18.25L66.81-18.25ZM71.11-16.4Q73.3-17.59 74.59-19.7L74.59-19.7Q75.94-21.88 75.94-24.44L75.94-24.44Q75.94-28.21 73.25-30.9L73.25-30.9Q70.58-33.57 66.81-33.57L66.81-33.57 46.2-33.57Q45.59-33.57 45.14-33.14L45.14-33.14Q44.72-32.7 44.72-32.09L44.72-32.09 44.72-1.48Q44.72-0.87 45.14-0.42L45.14-0.42Q45.59 0 46.2 0L46.2 0Q46.8 0 47.22-0.42L47.22-0.42Q47.67-0.87 47.67-1.48L47.67-1.48 47.67-15.32 65.05-15.32Q68.32-15.32 70.66-12.97L70.66-12.97Q72.98-10.65 72.98-7.36L72.98-7.36 72.98-1.48Q72.98-0.87 73.43-0.42L73.43-0.42Q73.85 0 74.46 0L74.46 0Q75.07 0 75.49-0.42L75.49-0.42Q75.94-0.87 75.94-1.48L75.94-1.48 75.94-7.36Q75.94-13.16 71.11-16.4L71.11-16.4ZM83.11-15.32L109.9-15.32Q110.5-15.32 110.93-15.74L110.93-15.74Q111.38-16.16 111.38-16.8L111.38-16.8Q111.38-17.4 110.93-17.82L110.93-17.82Q110.5-18.25 109.9-18.25L109.9-18.25 83.11-18.25 83.11-30.64 109.9-30.64Q110.5-30.64 110.93-31.06L110.93-31.06Q111.38-31.48 111.38-32.09L111.38-32.09Q111.38-32.7 110.93-33.14L110.93-33.14Q110.5-33.57 109.9-33.57L109.9-33.57 81.63-33.57Q81.03-33.57 80.58-33.14L80.58-33.14Q80.16-32.7 80.16-32.09L80.16-32.09 80.16-1.48Q80.16-0.87 80.58-0.42L80.58-0.42Q81.03 0 81.63 0L81.63 0 109.9 0Q110.5 0 110.93-0.42L110.93-0.42Q111.38-0.87 111.38-1.48L111.38-1.48Q111.38-2.08 110.93-2.5L110.93-2.5Q110.5-2.95 109.9-2.95L109.9-2.95 83.11-2.95 83.11-15.32ZM140.62 0L121.79 0Q119.23 0 117.41-1.82L117.41-1.82Q115.59-3.64 115.59-6.2L115.59-6.2 115.59-27.4Q115.59-29.95 117.41-31.75L117.41-31.75Q119.23-33.57 121.79-33.57L121.79-33.57 140.62-33.57Q143.17-33.57 144.99-31.75L144.99-31.75Q146.81-29.95 146.81-27.4L146.81-27.4 146.81-26.21Q146.81-25.6 146.36-25.15L146.36-25.15Q145.94-24.73 145.34-24.73L145.34-24.73Q144.73-24.73 144.31-25.15L144.31-25.15Q143.86-25.6 143.86-26.21L143.86-26.21 143.86-27.4Q143.86-28.71 142.91-29.66L142.91-29.66Q141.96-30.64 140.62-30.64L140.62-30.64 121.79-30.64Q120.45-30.64 119.5-29.66L119.5-29.66Q118.55-28.71 118.55-27.4L118.55-27.4 118.55-6.2Q118.55-4.85 119.5-3.9L119.5-3.9Q120.45-2.95 121.79-2.95L121.79-2.95 140.62-2.95Q141.96-2.95 142.91-3.9L142.91-3.9Q143.86-4.85 143.86-6.2L143.86-6.2 143.86-7.36Q143.86-7.96 144.31-8.41L144.31-8.41Q144.73-8.83 145.34-8.83L145.34-8.83Q145.94-8.83 146.36-8.41L146.36-8.41Q146.81-7.96 146.81-7.36L146.81-7.36 146.81-6.2Q146.81-3.64 144.99-1.82L144.99-1.82Q143.17 0 140.62 0L140.62 0ZM180.77-33.57L152.51-33.57Q151.9-33.57 151.45-33.14L151.45-33.14Q151.03-32.7 151.03-32.09L151.03-32.09Q151.03-31.48 151.45-31.06L151.45-31.06Q151.9-30.64 152.51-30.64L152.51-30.64 165.74-30.64 165.74-1.48Q165.74-0.87 166.19-0.42L166.19-0.42Q166.61 0 167.22 0L167.22 0Q167.83 0 168.28-0.42L168.28-0.42Q168.7-0.87 168.7-1.48L168.7-1.48 168.7-30.64 180.77-30.64Q181.38-30.64 181.8-31.06L181.8-31.06Q182.25-31.48 182.25-32.09L182.25-32.09Q182.25-32.7 181.8-33.14L181.8-33.14Q181.38-33.57 180.77-33.57L180.77-33.57Z" transform="translate(-2.109999895095825, 33.56999969482422)"></path></g> <!----> <!----> <!----> <!----> <!----> <!----> <!----></g></g> <!----></g></g></g><mask id="da237e2e-d367-4432-9f18-242fb898d43c"><g fill="white"><g><rect fill-opacity="1" stroke-width="2" x="0" y="0" width="105" height="105" class="image-rect"></rect> <svg x="0" y="0" width="105" height="105" filtersec="colorsb4351944892" class="image-svg-svg primary" style="overflow: visible;"><svg xmlns="http://www.w3.org/2000/svg" xmlns:xlink="http://www.w3.org/1999/xlink" version="1.1" x="0px" y="0px" viewBox="10.399999618530273 10.399999618530273 75.19999694824219 75.19999694824219" enable-background="new 0 0 96 96" xml:space="preserve"><path d="M48,85.6c20.7,0,37.6-16.9,37.6-37.6S68.7,10.4,48,10.4S10.4,27.3,10.4,48S27.3,85.6,48,85.6z M48,12.4  c19.6,0,35.6,16,35.6,35.6S67.6,83.6,48,83.6S12.4,67.6,12.4,48S28.4,12.4,48,12.4z"></path><path d="M48,75.4c15.1,0,27.4-12.3,27.4-27.4S63.1,20.6,48,20.6S20.6,32.9,20.6,48S32.9,75.4,48,75.4z M48,22.6  C62,22.6,73.4,34,73.4,48S62,73.4,48,73.4S22.6,62,22.6,48S34,22.6,48,22.6z"></path></svg></svg> </g></g> <g transform="translate(45.43000030517578,35.71500015258789)"><rect fill="black" fill-opacity="1" x="-3.5" y="-3.5" width="187.13999938964844" height="40.56999969482422"></rect><rect fill="black" fill-opacity="1" x="-3.5" y="-3.5"></rect></g><g transform="translate(45.43000030517578,35.71500015258789)" fill="black"><g data-gra="path-name" fill-rule="" class="tp-name"><g transform="scale(1)"><g><path d="M22.44 0L3.59 0Q2.98 0 2.53-0.42L2.53-0.42Q2.11-0.87 2.11-1.48L2.11-1.48Q2.11-2.08 2.53-2.5L2.53-2.5Q2.98-2.95 3.59-2.95L3.59-2.95 22.44-2.95Q25.71-2.95 28.05-5.27L28.05-5.27Q30.38-7.62 30.38-10.89L30.38-10.89 30.38-22.68Q30.38-25.97 28.05-28.29L28.05-28.29Q25.71-30.64 22.44-30.64L22.44-30.64 3.59-30.64Q2.98-30.64 2.53-31.06L2.53-31.06Q2.11-31.48 2.11-32.09L2.11-32.09Q2.11-32.7 2.53-33.14L2.53-33.14Q2.98-33.57 3.59-33.57L3.59-33.57 22.44-33.57Q26.95-33.57 30.14-30.38L30.14-30.38Q33.33-27.18 33.33-22.68L33.33-22.68 33.33-10.89Q33.33-6.38 30.14-3.19L30.14-3.19Q26.95 0 22.44 0L22.44 0ZM39.02 0Q38.42 0 37.97-0.42L37.97-0.42Q37.55-0.87 37.55-1.48L37.55-1.48 37.55-32.09Q37.55-32.7 37.97-33.14L37.97-33.14Q38.42-33.57 39.02-33.57L39.02-33.57Q39.63-33.57 40.05-33.14L40.05-33.14Q40.5-32.7 40.5-32.09L40.5-32.09 40.5-1.48Q40.5-0.87 40.05-0.42L40.05-0.42Q39.63 0 39.02 0L39.02 0ZM66.81-18.25L47.67-18.25 47.67-30.64 66.81-30.64Q69.37-30.64 71.17-28.82L71.17-28.82Q72.98-27 72.98-24.44L72.98-24.44Q72.98-21.88 71.17-20.07L71.17-20.07Q69.37-18.25 66.81-18.25L66.81-18.25ZM71.11-16.4Q73.3-17.59 74.59-19.7L74.59-19.7Q75.94-21.88 75.94-24.44L75.94-24.44Q75.94-28.21 73.25-30.9L73.25-30.9Q70.58-33.57 66.81-33.57L66.81-33.57 46.2-33.57Q45.59-33.57 45.14-33.14L45.14-33.14Q44.72-32.7 44.72-32.09L44.72-32.09 44.72-1.48Q44.72-0.87 45.14-0.42L45.14-0.42Q45.59 0 46.2 0L46.2 0Q46.8 0 47.22-0.42L47.22-0.42Q47.67-0.87 47.67-1.48L47.67-1.48 47.67-15.32 65.05-15.32Q68.32-15.32 70.66-12.97L70.66-12.97Q72.98-10.65 72.98-7.36L72.98-7.36 72.98-1.48Q72.98-0.87 73.43-0.42L73.43-0.42Q73.85 0 74.46 0L74.46 0Q75.07 0 75.49-0.42L75.49-0.42Q75.94-0.87 75.94-1.48L75.94-1.48 75.94-7.36Q75.94-13.16 71.11-16.4L71.11-16.4ZM83.11-15.32L109.9-15.32Q110.5-15.32 110.93-15.74L110.93-15.74Q111.38-16.16 111.38-16.8L111.38-16.8Q111.38-17.4 110.93-17.82L110.93-17.82Q110.5-18.25 109.9-18.25L109.9-18.25 83.11-18.25 83.11-30.64 109.9-30.64Q110.5-30.64 110.93-31.06L110.93-31.06Q111.38-31.48 111.38-32.09L111.38-32.09Q111.38-32.7 110.93-33.14L110.93-33.14Q110.5-33.57 109.9-33.57L109.9-33.57 81.63-33.57Q81.03-33.57 80.58-33.14L80.58-33.14Q80.16-32.7 80.16-32.09L80.16-32.09 80.16-1.48Q80.16-0.87 80.58-0.42L80.58-0.42Q81.03 0 81.63 0L81.63 0 109.9 0Q110.5 0 110.93-0.42L110.93-0.42Q111.38-0.87 111.38-1.48L111.38-1.48Q111.38-2.08 110.93-2.5L110.93-2.5Q110.5-2.95 109.9-2.95L109.9-2.95 83.11-2.95 83.11-15.32ZM140.62 0L121.79 0Q119.23 0 117.41-1.82L117.41-1.82Q115.59-3.64 115.59-6.2L115.59-6.2 115.59-27.4Q115.59-29.95 117.41-31.75L117.41-31.75Q119.23-33.57 121.79-33.57L121.79-33.57 140.62-33.57Q143.17-33.57 144.99-31.75L144.99-31.75Q146.81-29.95 146.81-27.4L146.81-27.4 146.81-26.21Q146.81-25.6 146.36-25.15L146.36-25.15Q145.94-24.73 145.34-24.73L145.34-24.73Q144.73-24.73 144.31-25.15L144.31-25.15Q143.86-25.6 143.86-26.21L143.86-26.21 143.86-27.4Q143.86-28.71 142.91-29.66L142.91-29.66Q141.96-30.64 140.62-30.64L140.62-30.64 121.79-30.64Q120.45-30.64 119.5-29.66L119.5-29.66Q118.55-28.71 118.55-27.4L118.55-27.4 118.55-6.2Q118.55-4.85 119.5-3.9L119.5-3.9Q120.45-2.95 121.79-2.95L121.79-2.95 140.62-2.95Q141.96-2.95 142.91-3.9L142.91-3.9Q143.86-4.85 143.86-6.2L143.86-6.2 143.86-7.36Q143.86-7.96 144.31-8.41L144.31-8.41Q144.73-8.83 145.34-8.83L145.34-8.83Q145.94-8.83 146.36-8.41L146.36-8.41Q146.81-7.96 146.81-7.36L146.81-7.36 146.81-6.2Q146.81-3.64 144.99-1.82L144.99-1.82Q143.17 0 140.62 0L140.62 0ZM180.77-33.57L152.51-33.57Q151.9-33.57 151.45-33.14L151.45-33.14Q151.03-32.7 151.03-32.09L151.03-32.09Q151.03-31.48 151.45-31.06L151.45-31.06Q151.9-30.64 152.51-30.64L152.51-30.64 165.74-30.64 165.74-1.48Q165.74-0.87 166.19-0.42L166.19-0.42Q166.61 0 167.22 0L167.22 0Q167.83 0 168.28-0.42L168.28-0.42Q168.7-0.87 168.7-1.48L168.7-1.48 168.7-30.64 180.77-30.64Q181.38-30.64 181.8-31.06L181.8-31.06Q182.25-31.48 182.25-32.09L182.25-32.09Q182.25-32.7 181.8-33.14L181.8-33.14Q181.38-33.57 180.77-33.57L180.77-33.57Z" transform="translate(-2.109999895095825, 33.56999969482422)"></path></g>       </g></g> </g></mask><defs v-gra="od"></defs><defs v-gra="id"><filter id="5b2b31aa-a0e5-44f4-85aa-60a70047b45d" filterUnits="userSpaceOnUse"><feColorMatrix type="matrix" values="0 0 0 0 0.99609375  0 0 0 0 0.99609375  0 0 0 0 0.99609375  0 0 0 1 0"></feColorMatrix></filter><linearGradient x1="0" y1="1" x2="0" y2="0" id="vN0hIv8ngTDj3Oa8yLg-M"><stop offset="0%" stop-color="#fdcbf0"></stop><stop offset="100%" stop-color="#e6dee9"></stop></linearGradient><filter id="42443b3f1de60f6b6fd3b6a9844b4764" filterUnits="objectBoundingBox"><feColorMatrix type="matrix" values="0 0 0 0 0.99609375  0 0 0 0 0.99609375  0 0 0 0 0.99609375  0 0 0 1 0"></feColorMatrix></filter></defs><mask v-gra="im" id="a36eea6e-555e-4a6e-ae2e-9996500db141"><g mask="url(#da237e2e-d367-4432-9f18-242fb898d43c)" filter="url(#5b2b31aa-a0e5-44f4-85aa-60a70047b45d)"><g><rect fill="#feecfb" fill-opacity="0" stroke-width="2" x="0" y="0" width="105" height="105" class="image-rect"></rect> <svg x="0" y="0" width="105" height="105" filtersec="colorsb4351944892" class="image-svg-svg primary" style="overflow: visible;"><svg fill="#a585e2" xmlns="http://www.w3.org/2000/svg" xmlns:xlink="http://www.w3.org/1999/xlink" version="1.1" x="0px" y="0px" viewBox="10.399999618530273 10.399999618530273 75.19999694824219 75.19999694824219" enable-background="new 0 0 96 96" xml:space="preserve"><path d="M48,85.6c20.7,0,37.6-16.9,37.6-37.6S68.7,10.4,48,10.4S10.4,27.3,10.4,48S27.3,85.6,48,85.6z M48,12.4  c19.6,0,35.6,16,35.6,35.6S67.6,83.6,48,83.6S12.4,67.6,12.4,48S28.4,12.4,48,12.4z"></path><path d="M48,75.4c15.1,0,27.4-12.3,27.4-27.4S63.1,20.6,48,20.6S20.6,32.9,20.6,48S32.9,75.4,48,75.4z M48,22.6  C62,22.6,73.4,34,73.4,48S62,73.4,48,73.4S22.6,62,22.6,48S34,22.6,48,22.6z"></path></svg></svg> <!----></g></g></mask></svg>